<?xml version="1.0" encoding="UTF-8" standalone="no" ?>
<!DOCTYPE svg PUBLIC "-//W3C//DTD SVG 1.1//EN" "http://www.w3.org/Graphics/SVG/1.1/DTD/svg11.dtd">
<svg xmlns="http://www.w3.org/2000/svg" xmlns:xlink="http://www.w3.org/1999/xlink" version="1.1" width="500" height="500" viewBox="0 0 500 500" xml:space="preserve">
<desc>Created with Fabric.js 5.3.0</desc>
<defs>
</defs>
<g transform="matrix(1.0716848236 0 0 -1.0716848236 106.0072204488 79.2015088222)" id="2m9y5Me897Tg_vKkVIfuH"  >
<path style="stroke: rgb(90,7,68); stroke-width: 0; stroke-dasharray: none; stroke-linecap: butt; stroke-dashoffset: 0; stroke-linejoin: miter; stroke-miterlimit: 4; fill: rgb(120,39,239); fill-opacity: 0.56; fill-rule: nonzero; opacity: 1;" vector-effect="non-scaling-stroke"  transform=" translate(-19.86096, -18.88889)" d="M 19.86102 0 L 25.75286 12.7736 L 39.72192 14.4299 L 29.394229999999997 23.98061 L 32.135659999999994 37.77778 L 19.860959999999995 30.906950000000002 L 7.586259999999996 37.77778 L 10.327689999999995 23.98061 L -5.329070518200751e-15 14.429899999999998 L 13.969059999999995 12.773599999999998 z" stroke-linecap="round" />
</g>
<g transform="matrix(1.0716848236 0 0 -1.0716848236 21.5624671919 327.4651600953)" id="_Takj116GMffidfnYqCxD"  >
<path style="stroke: rgb(90,7,68); stroke-width: 0; stroke-dasharray: none; stroke-linecap: butt; stroke-dashoffset: 0; stroke-linejoin: miter; stroke-miterlimit: 4; fill: rgb(120,39,239); fill-opacity: 0.56; fill-rule: nonzero; opacity: 1;" vector-effect="non-scaling-stroke"  transform=" translate(-19.86096, -18.88889)" d="M 19.86102 0 L 25.75286 12.7736 L 39.72192 14.4299 L 29.394229999999997 23.98061 L 32.135659999999994 37.77778 L 19.860959999999995 30.906950000000002 L 7.586259999999996 37.77778 L 10.327689999999995 23.98061 L -5.329070518200751e-15 14.429899999999998 L 13.969059999999995 12.773599999999998 z" stroke-linecap="round" />
</g>
<g transform="matrix(1.0716848236 0 0 -1.0716848236 145.2356976211 123.0989750481)" id="MJTDVGwZ1310h03UUm4cu"  >
<path style="stroke: rgb(90,7,68); stroke-width: 0; stroke-dasharray: none; stroke-linecap: butt; stroke-dashoffset: 0; stroke-linejoin: miter; stroke-miterlimit: 4; fill: rgb(120,39,239); fill-opacity: 0.56; fill-rule: nonzero; opacity: 1;" vector-effect="non-scaling-stroke"  transform=" translate(-19.86096, -18.88889)" d="M 19.86102 0 L 25.75286 12.7736 L 39.72192 14.4299 L 29.394229999999997 23.98061 L 32.135659999999994 37.77778 L 19.860959999999995 30.906950000000002 L 7.586259999999996 37.77778 L 10.327689999999995 23.98061 L -5.329070518200751e-15 14.429899999999998 L 13.969059999999995 12.773599999999998 z" stroke-linecap="round" />
</g>
<g transform="matrix(1.0716848236 0 0 -1.0716848236 25.6600638428 74.2015088222)" id="HfombUoSGJD0nWAyhrx_q"  >
<path style="stroke: rgb(90,7,68); stroke-width: 0; stroke-dasharray: none; stroke-linecap: butt; stroke-dashoffset: 0; stroke-linejoin: miter; stroke-miterlimit: 4; fill: rgb(120,39,239); fill-opacity: 0.56; fill-rule: nonzero; opacity: 1;" vector-effect="non-scaling-stroke"  transform=" translate(-19.86096, -18.88889)" d="M 19.86102 0 L 25.75286 12.7736 L 39.72192 14.4299 L 29.394229999999997 23.98061 L 32.135659999999994 37.77778 L 19.860959999999995 30.906950000000002 L 7.586259999999996 37.77778 L 10.327689999999995 23.98061 L -5.329070518200751e-15 14.429899999999998 L 13.969059999999995 12.773599999999998 z" stroke-linecap="round" />
</g>
<g transform="matrix(1.0716848236 0 0 -1.0716848236 160.6214590349 31.4237310444)" id="HvsdNX1JkvTNN9ovK4Mvi"  >
<path style="stroke: rgb(90,7,68); stroke-width: 0; stroke-dasharray: none; stroke-linecap: butt; stroke-dashoffset: 0; stroke-linejoin: miter; stroke-miterlimit: 4; fill: rgb(120,39,239); fill-opacity: 0.56; fill-rule: nonzero; opacity: 1;" vector-effect="non-scaling-stroke"  transform=" translate(-19.86096, -18.88889)" d="M 19.86102 0 L 25.75286 12.7736 L 39.72192 14.4299 L 29.394229999999997 23.98061 L 32.135659999999994 37.77778 L 19.860959999999995 30.906950000000002 L 7.586259999999996 37.77778 L 10.327689999999995 23.98061 L -5.329070518200751e-15 14.429899999999998 L 13.969059999999995 12.773599999999998 z" stroke-linecap="round" />
</g>
<g transform="matrix(1.0716848236 0 0 -1.0716848236 393.7849982266 134.5)" id="WslqSMcaSIaQCid-715Ct"  >
<path style="stroke: rgb(90,7,68); stroke-width: 0; stroke-dasharray: none; stroke-linecap: butt; stroke-dashoffset: 0; stroke-linejoin: miter; stroke-miterlimit: 4; fill: rgb(120,39,239); fill-opacity: 0.56; fill-rule: nonzero; opacity: 1;" vector-effect="non-scaling-stroke"  transform=" translate(-19.86096, -18.88889)" d="M 19.86102 0 L 25.75286 12.7736 L 39.72192 14.4299 L 29.394229999999997 23.98061 L 32.135659999999994 37.77778 L 19.860959999999995 30.906950000000002 L 7.586259999999996 37.77778 L 10.327689999999995 23.98061 L -5.329070518200751e-15 14.429899999999998 L 13.969059999999995 12.773599999999998 z" stroke-linecap="round" />
</g>
<g transform="matrix(1.0716848236 0 0 -1.0716848236 347.1531522064 80.8719596502)" id="f-plmLpMzkf1j4tQn5JsY"  >
<path style="stroke: rgb(90,7,68); stroke-width: 0; stroke-dasharray: none; stroke-linecap: butt; stroke-dashoffset: 0; stroke-linejoin: miter; stroke-miterlimit: 4; fill: rgb(120,39,239); fill-opacity: 0.56; fill-rule: nonzero; opacity: 1;" vector-effect="non-scaling-stroke"  transform=" translate(-19.86096, -18.88889)" d="M 19.86102 0 L 25.75286 12.7736 L 39.72192 14.4299 L 29.394229999999997 23.98061 L 32.135659999999994 37.77778 L 19.860959999999995 30.906950000000002 L 7.586259999999996 37.77778 L 10.327689999999995 23.98061 L -5.329070518200751e-15 14.429899999999998 L 13.969059999999995 12.773599999999998 z" stroke-linecap="round" />
</g>
<g transform="matrix(1.0716848236 0 0 -1.0716848236 291.2960418981 102.8560383005)" id="-UT5zb4XkdzkfipvXAHmo"  >
<path style="stroke: rgb(90,7,68); stroke-width: 0; stroke-dasharray: none; stroke-linecap: butt; stroke-dashoffset: 0; stroke-linejoin: miter; stroke-miterlimit: 4; fill: rgb(120,39,239); fill-opacity: 0.56; fill-rule: nonzero; opacity: 1;" vector-effect="non-scaling-stroke"  transform=" translate(-19.86096, -18.88889)" d="M 19.86102 0 L 25.75286 12.7736 L 39.72192 14.4299 L 29.394229999999997 23.98061 L 32.135659999999994 37.77778 L 19.860959999999995 30.906950000000002 L 7.586259999999996 37.77778 L 10.327689999999995 23.98061 L -5.329070518200751e-15 14.429899999999998 L 13.969059999999995 12.773599999999998 z" stroke-linecap="round" />
</g>
<g transform="matrix(1.0716848236 0 0 -1.0716848236 383.0520802067 38.7156353276)" id="Hczu7JCgXV_7-7Xq3C_zm"  >
<path style="stroke: rgb(90,7,68); stroke-width: 0; stroke-dasharray: none; stroke-linecap: butt; stroke-dashoffset: 0; stroke-linejoin: miter; stroke-miterlimit: 4; fill: rgb(120,39,239); fill-opacity: 0.56; fill-rule: nonzero; opacity: 1;" vector-effect="non-scaling-stroke"  transform=" translate(-19.86096, -18.88889)" d="M 19.86102 0 L 25.75286 12.7736 L 39.72192 14.4299 L 29.394229999999997 23.98061 L 32.135659999999994 37.77778 L 19.860959999999995 30.906950000000002 L 7.586259999999996 37.77778 L 10.327689999999995 23.98061 L -5.329070518200751e-15 14.429899999999998 L 13.969059999999995 12.773599999999998 z" stroke-linecap="round" />
</g>
<g transform="matrix(1.0716848236 0 0 1.0716848236 252.5040929738 31.4237310444)" id="_RFfQzr5z-YwuYbtOPct6"  >
<path style="stroke: rgb(90,7,68); stroke-width: 0; stroke-dasharray: none; stroke-linecap: butt; stroke-dashoffset: 0; stroke-linejoin: miter; stroke-miterlimit: 4; fill: rgb(120,39,239); fill-opacity: 0.56; fill-rule: nonzero; opacity: 1;" vector-effect="non-scaling-stroke"  transform=" translate(-19.86096, -18.88889)" d="M 19.86102 0 L 25.75286 12.7736 L 39.72192 14.4299 L 29.394229999999997 23.98061 L 32.135659999999994 37.77778 L 19.860959999999995 30.906950000000002 L 7.586259999999996 37.77778 L 10.327689999999995 23.98061 L -5.329070518200751e-15 14.429899999999998 L 13.969059999999995 12.773599999999998 z" stroke-linecap="round" />
</g>
<g transform="matrix(1.0716848236 0 0 1.0716848236 102.6663187928 303.0903965857)" id="5OVBBTNvxDwV0MBhG-H8t"  >
<path style="stroke: rgb(90,7,68); stroke-width: 0; stroke-dasharray: none; stroke-linecap: butt; stroke-dashoffset: 0; stroke-linejoin: miter; stroke-miterlimit: 4; fill: rgb(120,39,239); fill-opacity: 0.56; fill-rule: nonzero; opacity: 1;" vector-effect="non-scaling-stroke"  transform=" translate(-19.86096, -18.88889)" d="M 19.86102 0 L 25.75286 12.7736 L 39.72192 14.4299 L 29.394229999999997 23.98061 L 32.135659999999994 37.77778 L 19.860959999999995 30.906950000000002 L 7.586259999999996 37.77778 L 10.327689999999995 23.98061 L -5.329070518200751e-15 14.429899999999998 L 13.969059999999995 12.773599999999998 z" stroke-linecap="round" />
</g>
<g transform="matrix(1.0716848236 0 0 1.0716848236 182.6701029541 167.8522541391)" id="cHZfXKAnRD0Gmf90cqcQU"  >
<path style="stroke: rgb(90,7,68); stroke-width: 0; stroke-dasharray: none; stroke-linecap: butt; stroke-dashoffset: 0; stroke-linejoin: miter; stroke-miterlimit: 4; fill: rgb(120,39,239); fill-opacity: 0.56; fill-rule: nonzero; opacity: 1;" vector-effect="non-scaling-stroke"  transform=" translate(-19.86096, -18.88889)" d="M 19.86102 0 L 25.75286 12.7736 L 39.72192 14.4299 L 29.394229999999997 23.98061 L 32.135659999999994 37.77778 L 19.860959999999995 30.906950000000002 L 7.586259999999996 37.77778 L 10.327689999999995 23.98061 L -5.329070518200751e-15 14.429899999999998 L 13.969059999999995 12.773599999999998 z" stroke-linecap="round" />
</g>
<g transform="matrix(1.0716848236 0 0 1.0716848236 40.2743024281 232.5348421556)" id="C7zA12-IvdXNQxuz_UCSw"  >
<path style="stroke: rgb(90,7,68); stroke-width: 0; stroke-dasharray: none; stroke-linecap: butt; stroke-dashoffset: 0; stroke-linejoin: miter; stroke-miterlimit: 4; fill: rgb(120,39,239); fill-opacity: 0.56; fill-rule: nonzero; opacity: 1;" vector-effect="non-scaling-stroke"  transform=" translate(-19.86096, -18.88889)" d="M 19.86102 0 L 25.75286 12.7736 L 39.72192 14.4299 L 29.394229999999997 23.98061 L 32.135659999999994 37.77778 L 19.860959999999995 30.906950000000002 L 7.586259999999996 37.77778 L 10.327689999999995 23.98061 L -5.329070518200751e-15 14.429899999999998 L 13.969059999999995 12.773599999999998 z" stroke-linecap="round" />
</g>
<g transform="matrix(1.0716848236 0 0 1.0716848236 21.5624671919 150.3870951692)" id="c3HMxR7al0O1hZwKeAA6u"  >
<path style="stroke: rgb(90,7,68); stroke-width: 0; stroke-dasharray: none; stroke-linecap: butt; stroke-dashoffset: 0; stroke-linejoin: miter; stroke-miterlimit: 4; fill: rgb(120,39,239); fill-opacity: 0.56; fill-rule: nonzero; opacity: 1;" vector-effect="non-scaling-stroke"  transform=" translate(-19.86096, -18.88889)" d="M 19.86102 0 L 25.75286 12.7736 L 39.72192 14.4299 L 29.394229999999997 23.98061 L 32.135659999999994 37.77778 L 19.860959999999995 30.906950000000002 L 7.586259999999996 37.77778 L 10.327689999999995 23.98061 L -5.329070518200751e-15 14.429899999999998 L 13.969059999999995 12.773599999999998 z" stroke-linecap="round" />
</g>
<g transform="matrix(-1.0716848236 0 0 -1.0716848236 343.229442671 295.8681754889)" id="SaE4dr7pmb_MKcIqSKuh5"  >
<path style="stroke: rgb(90,7,68); stroke-width: 0; stroke-dasharray: none; stroke-linecap: butt; stroke-dashoffset: 0; stroke-linejoin: miter; stroke-miterlimit: 4; fill: rgb(120,39,239); fill-opacity: 0.56; fill-rule: nonzero; opacity: 1;" vector-effect="non-scaling-stroke"  transform=" translate(-19.86096, -18.88889)" d="M 19.86102 0 L 25.75286 12.7736 L 39.72192 14.4299 L 29.394229999999997 23.98061 L 32.135659999999994 37.77778 L 19.860959999999995 30.906950000000002 L 7.586259999999996 37.77778 L 10.327689999999995 23.98061 L -5.329070518200751e-15 14.429899999999998 L 13.969059999999995 12.773599999999998 z" stroke-linecap="round" />
</g>
<g transform="matrix(-1.0716848236 0 0 -1.0716848236 273.7887823879 320.3126199333)" id="aXAzhQw7JiTmOfldbSlQx"  >
<path style="stroke: rgb(90,7,68); stroke-width: 0; stroke-dasharray: none; stroke-linecap: butt; stroke-dashoffset: 0; stroke-linejoin: miter; stroke-miterlimit: 4; fill: rgb(120,39,239); fill-opacity: 0.56; fill-rule: nonzero; opacity: 1;" vector-effect="non-scaling-stroke"  transform=" translate(-19.86096, -18.88889)" d="M 19.86102 0 L 25.75286 12.7736 L 39.72192 14.4299 L 29.394229999999997 23.98061 L 32.135659999999994 37.77778 L 19.860959999999995 30.906950000000002 L 7.586259999999996 37.77778 L 10.327689999999995 23.98061 L -5.329070518200751e-15 14.429899999999998 L 13.969059999999995 12.773599999999998 z" stroke-linecap="round" />
</g>
<g transform="matrix(-1.0716848236 0 0 -1.0716848236 284.6255910701 236.1807942968)" id="afVJS-CBmIylZibc_GbS4"  >
<path style="stroke: rgb(90,7,68); stroke-width: 0; stroke-dasharray: none; stroke-linecap: butt; stroke-dashoffset: 0; stroke-linejoin: miter; stroke-miterlimit: 4; fill: rgb(120,39,239); fill-opacity: 0.56; fill-rule: nonzero; opacity: 1;" vector-effect="non-scaling-stroke"  transform=" translate(-19.86096, -18.88889)" d="M 19.86102 0 L 25.75286 12.7736 L 39.72192 14.4299 L 29.394229999999997 23.98061 L 32.135659999999994 37.77778 L 19.860959999999995 30.906950000000002 L 7.586259999999996 37.77778 L 10.327689999999995 23.98061 L -5.329070518200751e-15 14.429899999999998 L 13.969059999999995 12.773599999999998 z" stroke-linecap="round" />
</g>
<g transform="matrix(-1.0716848236 0 0 -1.0716848236 196.0110046101 436.4237310444)" id="nGoSYcJM1zq55hcVGrreD"  >
<path style="stroke: rgb(90,7,68); stroke-width: 0; stroke-dasharray: none; stroke-linecap: butt; stroke-dashoffset: 0; stroke-linejoin: miter; stroke-miterlimit: 4; fill: rgb(120,39,239); fill-opacity: 0.56; fill-rule: nonzero; opacity: 1;" vector-effect="non-scaling-stroke"  transform=" translate(-19.86096, -18.88889)" d="M 19.86102 0 L 25.75286 12.7736 L 39.72192 14.4299 L 29.394229999999997 23.98061 L 32.135659999999994 37.77778 L 19.860959999999995 30.906950000000002 L 7.586259999999996 37.77778 L 10.327689999999995 23.98061 L -5.329070518200751e-15 14.429899999999998 L 13.969059999999995 12.773599999999998 z" stroke-linecap="round" />
</g>
<g transform="matrix(-1.0716848236 0 0 -1.0716848236 25.6600638428 443.160078646)" id="cFlwXx3rXkIninBQEB-ht"  >
<path style="stroke: rgb(90,7,68); stroke-width: 0; stroke-dasharray: none; stroke-linecap: butt; stroke-dashoffset: 0; stroke-linejoin: miter; stroke-miterlimit: 4; fill: rgb(120,39,239); fill-opacity: 0.56; fill-rule: nonzero; opacity: 1;" vector-effect="non-scaling-stroke"  transform=" translate(-19.86096, -18.88889)" d="M 19.86102 0 L 25.75286 12.7736 L 39.72192 14.4299 L 29.394229999999997 23.98061 L 32.135659999999994 37.77778 L 19.860959999999995 30.906950000000002 L 7.586259999999996 37.77778 L 10.327689999999995 23.98061 L -5.329070518200751e-15 14.429899999999998 L 13.969059999999995 12.773599999999998 z" stroke-linecap="round" />
</g>
<g transform="matrix(-1.0716848236 0 0 -1.0716848236 99.3367696208 472.5348421555)" id="_AUlBIHBq2h0demvcWoEe"  >
<path style="stroke: rgb(90,7,68); stroke-width: 0; stroke-dasharray: none; stroke-linecap: butt; stroke-dashoffset: 0; stroke-linejoin: miter; stroke-miterlimit: 4; fill: rgb(120,39,239); fill-opacity: 0.56; fill-rule: nonzero; opacity: 1;" vector-effect="non-scaling-stroke"  transform=" translate(-19.86096, -18.88889)" d="M 19.86102 0 L 25.75286 12.7736 L 39.72192 14.4299 L 29.394229999999997 23.98061 L 32.135659999999994 37.77778 L 19.860959999999995 30.906950000000002 L 7.586259999999996 37.77778 L 10.327689999999995 23.98061 L -5.329070518200751e-15 14.429899999999998 L 13.969059999999995 12.773599999999998 z" stroke-linecap="round" />
</g>
<g transform="matrix(-1.0716848236 0 0 -1.0716848236 263.340901656 463.4030153936)" id="dsnBpsoUoAk58holop5bs"  >
<path style="stroke: rgb(90,7,68); stroke-width: 0; stroke-dasharray: none; stroke-linecap: butt; stroke-dashoffset: 0; stroke-linejoin: miter; stroke-miterlimit: 4; fill: rgb(120,39,239); fill-opacity: 0.56; fill-rule: nonzero; opacity: 1;" vector-effect="non-scaling-stroke"  transform=" translate(-19.86096, -18.88889)" d="M 19.86102 0 L 25.75286 12.7736 L 39.72192 14.4299 L 29.394229999999997 23.98061 L 32.135659999999994 37.77778 L 19.860959999999995 30.906950000000002 L 7.586259999999996 37.77778 L 10.327689999999995 23.98061 L -5.329070518200751e-15 14.429899999999998 L 13.969059999999995 12.773599999999998 z" stroke-linecap="round" />
</g>
<g transform="matrix(-1.0716848236 0 0 -1.0716848236 372.5003088125 232.5348421556)" id="Pi5ov5J_o5JWuBBcyGOla"  >
<path style="stroke: rgb(90,7,68); stroke-width: 0; stroke-dasharray: none; stroke-linecap: butt; stroke-dashoffset: 0; stroke-linejoin: miter; stroke-miterlimit: 4; fill: rgb(120,39,239); fill-opacity: 0.56; fill-rule: nonzero; opacity: 1;" vector-effect="non-scaling-stroke"  transform=" translate(-19.86096, -18.88889)" d="M 19.86102 0 L 25.75286 12.7736 L 39.72192 14.4299 L 29.394229999999997 23.98061 L 32.135659999999994 37.77778 L 19.860959999999995 30.906950000000002 L 7.586259999999996 37.77778 L 10.327689999999995 23.98061 L -5.329070518200751e-15 14.429899999999998 L 13.969059999999995 12.773599999999998 z" stroke-linecap="round" />
</g>
<g transform="matrix(-1.0716848236 0 0 -1.0716848236 361.7673907925 476.9096045397)" id="gPT4MN_0vu0MZEyQpyjMn"  >
<path style="stroke: rgb(90,7,68); stroke-width: 0; stroke-dasharray: none; stroke-linecap: butt; stroke-dashoffset: 0; stroke-linejoin: miter; stroke-miterlimit: 4; fill: rgb(120,39,239); fill-opacity: 0.56; fill-rule: nonzero; opacity: 1;" vector-effect="non-scaling-stroke"  transform=" translate(-19.86096, -18.88889)" d="M 19.86102 0 L 25.75286 12.7736 L 39.72192 14.4299 L 29.394229999999997 23.98061 L 32.135659999999994 37.77778 L 19.860959999999995 30.906950000000002 L 7.586259999999996 37.77778 L 10.327689999999995 23.98061 L -5.329070518200751e-15 14.429899999999998 L 13.969059999999995 12.773599999999998 z" stroke-linecap="round" />
</g>
<g transform="matrix(-1.0716848236 0 0 -1.0716848236 225.2394817824 286.9792866)" id="5XlY-PSmDv_Y_qooknY9Y"  >
<path style="stroke: rgb(90,7,68); stroke-width: 0; stroke-dasharray: none; stroke-linecap: butt; stroke-dashoffset: 0; stroke-linejoin: miter; stroke-miterlimit: 4; fill: rgb(120,39,239); fill-opacity: 0.56; fill-rule: nonzero; opacity: 1;" vector-effect="non-scaling-stroke"  transform=" translate(-19.86096, -18.88889)" d="M 19.86102 0 L 25.75286 12.7736 L 39.72192 14.4299 L 29.394229999999997 23.98061 L 32.135659999999994 37.77778 L 19.860959999999995 30.906950000000002 L 7.586259999999996 37.77778 L 10.327689999999995 23.98061 L -5.329070518200751e-15 14.429899999999998 L 13.969059999999995 12.773599999999998 z" stroke-linecap="round" />
</g>
<g transform="matrix(-1.0716848236 0 0 -1.0716848236 165.795037338 310.8681754889)" id="LSwId5YmPo-PTqrJLXzsr"  >
<path style="stroke: rgb(90,7,68); stroke-width: 0; stroke-dasharray: none; stroke-linecap: butt; stroke-dashoffset: 0; stroke-linejoin: miter; stroke-miterlimit: 4; fill: rgb(120,39,239); fill-opacity: 0.56; fill-rule: nonzero; opacity: 1;" vector-effect="non-scaling-stroke"  transform=" translate(-19.86096, -18.88889)" d="M 19.86102 0 L 25.75286 12.7736 L 39.72192 14.4299 L 29.394229999999997 23.98061 L 32.135659999999994 37.77778 L 19.860959999999995 30.906950000000002 L 7.586259999999996 37.77778 L 10.327689999999995 23.98061 L -5.329070518200751e-15 14.429899999999998 L 13.969059999999995 12.773599999999998 z" stroke-linecap="round" />
</g>
<g transform="matrix(-1.0716848236 0 0 -1.0716848236 165.795037338 236.659098344)" id="L7bNBmqH8bGhrJCyT84p0"  >
<path style="stroke: rgb(90,7,68); stroke-width: 0; stroke-dasharray: none; stroke-linecap: butt; stroke-dashoffset: 0; stroke-linejoin: miter; stroke-miterlimit: 4; fill: rgb(120,39,239); fill-opacity: 0.56; fill-rule: nonzero; opacity: 1;" vector-effect="non-scaling-stroke"  transform=" translate(-19.86096, -18.88889)" d="M 19.86102 0 L 25.75286 12.7736 L 39.72192 14.4299 L 29.394229999999997 23.98061 L 32.135659999999994 37.77778 L 19.860959999999995 30.906950000000002 L 7.586259999999996 37.77778 L 10.327689999999995 23.98061 L -5.329070518200751e-15 14.429899999999998 L 13.969059999999995 12.773599999999998 z" stroke-linecap="round" />
</g>
<g transform="matrix(-1.0716848236 0 0 -1.0716848236 448.1748916757 295.8681754889)" id="BUnEN6MPJUbaU3VWgzRxe"  >
<path style="stroke: rgb(90,7,68); stroke-width: 0; stroke-dasharray: none; stroke-linecap: butt; stroke-dashoffset: 0; stroke-linejoin: miter; stroke-miterlimit: 4; fill: rgb(120,39,239); fill-opacity: 0.56; fill-rule: nonzero; opacity: 1;" vector-effect="non-scaling-stroke"  transform=" translate(-19.86096, -18.88889)" d="M 19.86102 0 L 25.75286 12.7736 L 39.72192 14.4299 L 29.394229999999997 23.98061 L 32.135659999999994 37.77778 L 19.860959999999995 30.906950000000002 L 7.586259999999996 37.77778 L 10.327689999999995 23.98061 L -5.329070518200751e-15 14.429899999999998 L 13.969059999999995 12.773599999999998 z" stroke-linecap="round" />
</g>
<g transform="matrix(-1.0716848236 0 0 -1.0716848236 477.4033688479 183.9709335729)" id="RlSVuxYT0ODHDr2EBrdri"  >
<path style="stroke: rgb(90,7,68); stroke-width: 0; stroke-dasharray: none; stroke-linecap: butt; stroke-dashoffset: 0; stroke-linejoin: miter; stroke-miterlimit: 4; fill: rgb(120,39,239); fill-opacity: 0.56; fill-rule: nonzero; opacity: 1;" vector-effect="non-scaling-stroke"  transform=" translate(-19.86096, -18.88889)" d="M 19.86102 0 L 25.75286 12.7736 L 39.72192 14.4299 L 29.394229999999997 23.98061 L 32.135659999999994 37.77778 L 19.860959999999995 30.906950000000002 L 7.586259999999996 37.77778 L 10.327689999999995 23.98061 L -5.329070518200751e-15 14.429899999999998 L 13.969059999999995 12.773599999999998 z" stroke-linecap="round" />
</g>
<g transform="matrix(-1.0716848236 0 0 -1.0716848236 340.4827013784 375.6262477556)" id="uw3MBg5BfC6VsXsbWwlQK"  >
<path style="stroke: rgb(90,7,68); stroke-width: 0; stroke-dasharray: none; stroke-linecap: butt; stroke-dashoffset: 0; stroke-linejoin: miter; stroke-miterlimit: 4; fill: rgb(120,39,239); fill-opacity: 0.56; fill-rule: nonzero; opacity: 1;" vector-effect="non-scaling-stroke"  transform=" translate(-19.86096, -18.88889)" d="M 19.86102 0 L 25.75286 12.7736 L 39.72192 14.4299 L 29.394229999999997 23.98061 L 32.135659999999994 37.77778 L 19.860959999999995 30.906950000000002 L 7.586259999999996 37.77778 L 10.327689999999995 23.98061 L -5.329070518200751e-15 14.429899999999998 L 13.969059999999995 12.773599999999998 z" stroke-linecap="round" />
</g>
<g transform="matrix(-1.0716848236 0 0 -1.0716848236 474.6218069088 391.4323083814)" id="zMxI53abrhZA_S3UknoxM"  >
<path style="stroke: rgb(90,7,68); stroke-width: 0; stroke-dasharray: none; stroke-linecap: butt; stroke-dashoffset: 0; stroke-linejoin: miter; stroke-miterlimit: 4; fill: rgb(120,39,239); fill-opacity: 0.56; fill-rule: nonzero; opacity: 1;" vector-effect="non-scaling-stroke"  transform=" translate(-19.86096, -18.88889)" d="M 19.86102 0 L 25.75286 12.7736 L 39.72192 14.4299 L 29.394229999999997 23.98061 L 32.135659999999994 37.77778 L 19.860959999999995 30.906950000000002 L 7.586259999999996 37.77778 L 10.327689999999995 23.98061 L -5.329070518200751e-15 14.429899999999998 L 13.969059999999995 12.773599999999998 z" stroke-linecap="round" />
</g>
<g transform="matrix(-1.0716848236 0 0 -1.0716848236 68.2294426711 375.3946634919)" id="ZkSDkb3mpKegK_rf1XPDP"  >
<path style="stroke: rgb(90,7,68); stroke-width: 0; stroke-dasharray: none; stroke-linecap: butt; stroke-dashoffset: 0; stroke-linejoin: miter; stroke-miterlimit: 4; fill: rgb(120,39,239); fill-opacity: 0.56; fill-rule: nonzero; opacity: 1;" vector-effect="non-scaling-stroke"  transform=" translate(-19.86096, -18.88889)" d="M 19.86102 0 L 25.75286 12.7736 L 39.72192 14.4299 L 29.394229999999997 23.98061 L 32.135659999999994 37.77778 L 19.860959999999995 30.906950000000002 L 7.586259999999996 37.77778 L 10.327689999999995 23.98061 L -5.329070518200751e-15 14.429899999999998 L 13.969059999999995 12.773599999999998 z" stroke-linecap="round" />
</g>
<g transform="matrix(-1.0716848236 0 0 -1.0716848236 453.3371174947 463.4030153936)" id="jh9w7JullnlMZ0qx0aKBH"  >
<path style="stroke: rgb(90,7,68); stroke-width: 0; stroke-dasharray: none; stroke-linecap: butt; stroke-dashoffset: 0; stroke-linejoin: miter; stroke-miterlimit: 4; fill: rgb(120,39,239); fill-opacity: 0.56; fill-rule: nonzero; opacity: 1;" vector-effect="non-scaling-stroke"  transform=" translate(-19.86096, -18.88889)" d="M 19.86102 0 L 25.75286 12.7736 L 39.72192 14.4299 L 29.394229999999997 23.98061 L 32.135659999999994 37.77778 L 19.860959999999995 30.906950000000002 L 7.586259999999996 37.77778 L 10.327689999999995 23.98061 L -5.329070518200751e-15 14.429899999999998 L 13.969059999999995 12.773599999999998 z" stroke-linecap="round" />
</g>
<g transform="matrix(0.1542612707 0 0 0.1542612707 74.8998934982 134.5)" id="sEHv6lcuNQ7lhm5ZrrVe5"  >
<path style="stroke: none; stroke-width: 1; stroke-dasharray: none; stroke-linecap: butt; stroke-dashoffset: 0; stroke-linejoin: miter; stroke-miterlimit: 4; fill: rgb(18,125,255); fill-rule: nonzero; opacity: 1;" vector-effect="non-scaling-stroke"  transform=" translate(-40, -40)" d="M 40 19.294 L 50.718 0 L 50.353 22.068 L 69.282 10.718000000000002 L 57.931999999999995 29.647 L 80 29.282 L 60.706 40 L 80 50.718 L 57.932 50.353 L 69.282 69.282 L 50.352999999999994 57.931999999999995 L 50.718 80 L 40 60.706 L 29.282 80 L 29.647 57.932 L 10.718 69.282 L 22.067999999999998 50.352999999999994 L 0 50.718 L 19.294 40 L 0 29.282 L 22.068 29.647 L 10.718000000000002 10.718 L 29.647 22.067999999999998 L 29.282 0 L 40 19.294 z" stroke-linecap="round" />
</g>
<g transform="matrix(0.1542612707 0 0 0.1542612707 102.6663187928 223.0866124244)" id="rTthUp0rousfCw-MejYa4"  >
<path style="stroke: none; stroke-width: 1; stroke-dasharray: none; stroke-linecap: butt; stroke-dashoffset: 0; stroke-linejoin: miter; stroke-miterlimit: 4; fill: rgb(18,125,255); fill-rule: nonzero; opacity: 1;" vector-effect="non-scaling-stroke"  transform=" translate(-40, -40)" d="M 40 19.294 L 50.718 0 L 50.353 22.068 L 69.282 10.718000000000002 L 57.931999999999995 29.647 L 80 29.282 L 60.706 40 L 80 50.718 L 57.932 50.353 L 69.282 69.282 L 50.352999999999994 57.931999999999995 L 50.718 80 L 40 60.706 L 29.282 80 L 29.647 57.932 L 10.718 69.282 L 22.067999999999998 50.352999999999994 L 0 50.718 L 19.294 40 L 0 29.282 L 22.068 29.647 L 10.718000000000002 10.718 L 29.647 22.067999999999998 L 29.282 0 L 40 19.294 z" stroke-linecap="round" />
</g>
<g transform="matrix(0.1542612707 0 0 0.1542612707 210.6252431963 351.1780191498)" id="kIAduw6BDNeWBkTic0EvP"  >
<path style="stroke: none; stroke-width: 1; stroke-dasharray: none; stroke-linecap: butt; stroke-dashoffset: 0; stroke-linejoin: miter; stroke-miterlimit: 4; fill: rgb(18,125,255); fill-rule: nonzero; opacity: 1;" vector-effect="non-scaling-stroke"  transform=" translate(-40, -40)" d="M 40 19.294 L 50.718 0 L 50.353 22.068 L 69.282 10.718000000000002 L 57.931999999999995 29.647 L 80 29.282 L 60.706 40 L 80 50.718 L 57.932 50.353 L 69.282 69.282 L 50.352999999999994 57.931999999999995 L 50.718 80 L 40 60.706 L 29.282 80 L 29.647 57.932 L 10.718 69.282 L 22.067999999999998 50.352999999999994 L 0 50.718 L 19.294 40 L 0 29.282 L 22.068 29.647 L 10.718000000000002 10.718 L 29.647 22.067999999999998 L 29.282 0 L 40 19.294 z" stroke-linecap="round" />
</g>
<g transform="matrix(0.1542612707 0 0 0.1542612707 106.0072204488 170.6300319169)" id="yylJox-jb2_gITZfSlqFQ"  >
<path style="stroke: none; stroke-width: 1; stroke-dasharray: none; stroke-linecap: butt; stroke-dashoffset: 0; stroke-linejoin: miter; stroke-miterlimit: 4; fill: rgb(18,125,255); fill-rule: nonzero; opacity: 1;" vector-effect="non-scaling-stroke"  transform=" translate(-40, -40)" d="M 40 19.294 L 50.718 0 L 50.353 22.068 L 69.282 10.718000000000002 L 57.931999999999995 29.647 L 80 29.282 L 60.706 40 L 80 50.718 L 57.932 50.353 L 69.282 69.282 L 50.352999999999994 57.931999999999995 L 50.718 80 L 40 60.706 L 29.282 80 L 29.647 57.932 L 10.718 69.282 L 22.067999999999998 50.352999999999994 L 0 50.718 L 19.294 40 L 0 29.282 L 22.068 29.647 L 10.718000000000002 10.718 L 29.647 22.067999999999998 L 29.282 0 L 40 19.294 z" stroke-linecap="round" />
</g>
<g transform="matrix(0.1542612707 0 0 0.1542612707 442.7777777778 229.5103434688)" id="oLY9y2G7b19xE-hFusrXK"  >
<path style="stroke: none; stroke-width: 1; stroke-dasharray: none; stroke-linecap: butt; stroke-dashoffset: 0; stroke-linejoin: miter; stroke-miterlimit: 4; fill: rgb(18,125,255); fill-rule: nonzero; opacity: 1;" vector-effect="non-scaling-stroke"  transform=" translate(-40, -40)" d="M 40 19.294 L 50.718 0 L 50.353 22.068 L 69.282 10.718000000000002 L 57.931999999999995 29.647 L 80 29.282 L 60.706 40 L 80 50.718 L 57.932 50.353 L 69.282 69.282 L 50.352999999999994 57.931999999999995 L 50.718 80 L 40 60.706 L 29.282 80 L 29.647 57.932 L 10.718 69.282 L 22.067999999999998 50.352999999999994 L 0 50.718 L 19.294 40 L 0 29.282 L 22.068 29.647 L 10.718000000000002 10.718 L 29.647 22.067999999999998 L 29.282 0 L 40 19.294 z" stroke-linecap="round" />
</g>
<g transform="matrix(0.1542612707 0 0 0.1542612707 397.6663187928 276.17700901)" id="ifCXFDHF2dVfI2PpEUlWM"  >
<path style="stroke: none; stroke-width: 1; stroke-dasharray: none; stroke-linecap: butt; stroke-dashoffset: 0; stroke-linejoin: miter; stroke-miterlimit: 4; fill: rgb(18,125,255); fill-rule: nonzero; opacity: 1;" vector-effect="non-scaling-stroke"  transform=" translate(-40, -40)" d="M 40 19.294 L 50.718 0 L 50.353 22.068 L 69.282 10.718000000000002 L 57.931999999999995 29.647 L 80 29.282 L 60.706 40 L 80 50.718 L 57.932 50.353 L 69.282 69.282 L 50.352999999999994 57.931999999999995 L 50.718 80 L 40 60.706 L 29.282 80 L 29.647 57.932 L 10.718 69.282 L 22.067999999999998 50.352999999999994 L 0 50.718 L 19.294 40 L 0 29.282 L 22.068 29.647 L 10.718000000000002 10.718 L 29.647 22.067999999999998 L 29.282 0 L 40 19.294 z" stroke-linecap="round" />
</g>
<g transform="matrix(0.1542612707 0 0 0.1542612707 197.2843415403 96.1855874725)" id="A3OXYiO6BZhvRKkUYYZDx"  >
<path style="stroke: none; stroke-width: 1; stroke-dasharray: none; stroke-linecap: butt; stroke-dashoffset: 0; stroke-linejoin: miter; stroke-miterlimit: 4; fill: rgb(18,125,255); fill-rule: nonzero; opacity: 1;" vector-effect="non-scaling-stroke"  transform=" translate(-40, -40)" d="M 40 19.294 L 50.718 0 L 50.353 22.068 L 69.282 10.718000000000002 L 57.931999999999995 29.647 L 80 29.282 L 60.706 40 L 80 50.718 L 57.932 50.353 L 69.282 69.282 L 50.352999999999994 57.931999999999995 L 50.718 80 L 40 60.706 L 29.282 80 L 29.647 57.932 L 10.718 69.282 L 22.067999999999998 50.352999999999994 L 0 50.718 L 19.294 40 L 0 29.282 L 22.068 29.647 L 10.718000000000002 10.718 L 29.647 22.067999999999998 L 29.282 0 L 40 19.294 z" stroke-linecap="round" />
</g>
<g transform="matrix(0.1542612707 0 0 0.1542612707 74.8998934991 28.4078096947)" id="bYCZYfBFr_eWsBzwrckc6"  >
<path style="stroke: none; stroke-width: 1; stroke-dasharray: none; stroke-linecap: butt; stroke-dashoffset: 0; stroke-linejoin: miter; stroke-miterlimit: 4; fill: rgb(18,125,255); fill-rule: nonzero; opacity: 1;" vector-effect="non-scaling-stroke"  transform=" translate(-40, -40)" d="M 40 19.294 L 50.718 0 L 50.353 22.068 L 69.282 10.718000000000002 L 57.931999999999995 29.647 L 80 29.282 L 60.706 40 L 80 50.718 L 57.932 50.353 L 69.282 69.282 L 50.352999999999994 57.931999999999995 L 50.718 80 L 40 60.706 L 29.282 80 L 29.647 57.932 L 10.718 69.282 L 22.067999999999998 50.352999999999994 L 0 50.718 L 19.294 40 L 0 29.282 L 22.068 29.647 L 10.718000000000002 10.718 L 29.647 22.067999999999998 L 29.282 0 L 40 19.294 z" stroke-linecap="round" />
</g>
<g transform="matrix(0.1542612707 0 0 0.1542612707 308.7849982266 177.3004827449)" id="KG5ZNbwwkXjPQ0gWOd7Gr"  >
<path style="stroke: none; stroke-width: 1; stroke-dasharray: none; stroke-linecap: butt; stroke-dashoffset: 0; stroke-linejoin: miter; stroke-miterlimit: 4; fill: rgb(18,125,255); fill-rule: nonzero; opacity: 1;" vector-effect="non-scaling-stroke"  transform=" translate(-40, -40)" d="M 40 19.294 L 50.718 0 L 50.353 22.068 L 69.282 10.718000000000002 L 57.931999999999995 29.647 L 80 29.282 L 60.706 40 L 80 50.718 L 57.932 50.353 L 69.282 69.282 L 50.352999999999994 57.931999999999995 L 50.718 80 L 40 60.706 L 29.282 80 L 29.647 57.932 L 10.718 69.282 L 22.067999999999998 50.352999999999994 L 0 50.718 L 19.294 40 L 0 29.282 L 22.068 29.647 L 10.718000000000002 10.718 L 29.647 22.067999999999998 L 29.282 0 L 40 19.294 z" stroke-linecap="round" />
</g>
<g transform="matrix(0.1542612707 0 0 0.1542612707 325.8684627923 242.8512451248)" id="O5Kaws_9Poafr2prc4wa3"  >
<path style="stroke: none; stroke-width: 1; stroke-dasharray: none; stroke-linecap: butt; stroke-dashoffset: 0; stroke-linejoin: miter; stroke-miterlimit: 4; fill: rgb(18,125,255); fill-rule: nonzero; opacity: 1;" vector-effect="non-scaling-stroke"  transform=" translate(-40, -40)" d="M 40 19.294 L 50.718 0 L 50.353 22.068 L 69.282 10.718000000000002 L 57.931999999999995 29.647 L 80 29.282 L 60.706 40 L 80 50.718 L 57.932 50.353 L 69.282 69.282 L 50.352999999999994 57.931999999999995 L 50.718 80 L 40 60.706 L 29.282 80 L 29.647 57.932 L 10.718 69.282 L 22.067999999999998 50.352999999999994 L 0 50.718 L 19.294 40 L 0 29.282 L 22.068 29.647 L 10.718000000000002 10.718 L 29.647 22.067999999999998 L 29.282 0 L 40 19.294 z" stroke-linecap="round" />
</g>
<g transform="matrix(0.1542612707 0 0 0.1542612707 361.7673907925 177.3004827449)" id="93NG-5p2eG_4u7RP2Nahe"  >
<path style="stroke: none; stroke-width: 1; stroke-dasharray: none; stroke-linecap: butt; stroke-dashoffset: 0; stroke-linejoin: miter; stroke-miterlimit: 4; fill: rgb(18,125,255); fill-rule: nonzero; opacity: 1;" vector-effect="non-scaling-stroke"  transform=" translate(-40, -40)" d="M 40 19.294 L 50.718 0 L 50.353 22.068 L 69.282 10.718000000000002 L 57.931999999999995 29.647 L 80 29.282 L 60.706 40 L 80 50.718 L 57.932 50.353 L 69.282 69.282 L 50.352999999999994 57.931999999999995 L 50.718 80 L 40 60.706 L 29.282 80 L 29.647 57.932 L 10.718 69.282 L 22.067999999999998 50.352999999999994 L 0 50.718 L 19.294 40 L 0 29.282 L 22.068 29.647 L 10.718000000000002 10.718 L 29.647 22.067999999999998 L 29.282 0 L 40 19.294 z" stroke-linecap="round" />
</g>
<g transform="matrix(0.1542612707 0 0 0.1542612707 339.2093644483 123.0989750481)" id="ymd16iMtHI4Ns-xWACMAb"  >
<path style="stroke: none; stroke-width: 1; stroke-dasharray: none; stroke-linecap: butt; stroke-dashoffset: 0; stroke-linejoin: miter; stroke-miterlimit: 4; fill: rgb(18,125,255); fill-rule: nonzero; opacity: 1;" vector-effect="non-scaling-stroke"  transform=" translate(-40, -40)" d="M 40 19.294 L 50.718 0 L 50.353 22.068 L 69.282 10.718000000000002 L 57.931999999999995 29.647 L 80 29.282 L 60.706 40 L 80 50.718 L 57.932 50.353 L 69.282 69.282 L 50.352999999999994 57.931999999999995 L 50.718 80 L 40 60.706 L 29.282 80 L 29.647 57.932 L 10.718 69.282 L 22.067999999999998 50.352999999999994 L 0 50.718 L 19.294 40 L 0 29.282 L 22.068 29.647 L 10.718000000000002 10.718 L 29.647 22.067999999999998 L 29.282 0 L 40 19.294 z" stroke-linecap="round" />
</g>
<g transform="matrix(0.0700331514 -0.1374477986 0.1374477986 0.0700331514 397.6663187928 85.4727090579)" id="8L4KykDCT_SL1_bBT2uhg"  >
<path style="stroke: none; stroke-width: 1; stroke-dasharray: none; stroke-linecap: butt; stroke-dashoffset: 0; stroke-linejoin: miter; stroke-miterlimit: 4; fill: rgb(18,125,255); fill-rule: nonzero; opacity: 1;" vector-effect="non-scaling-stroke"  transform=" translate(-40, -40)" d="M 40 19.294 L 50.718 0 L 50.353 22.068 L 69.282 10.718000000000002 L 57.931999999999995 29.647 L 80 29.282 L 60.706 40 L 80 50.718 L 57.932 50.353 L 69.282 69.282 L 50.352999999999994 57.931999999999995 L 50.718 80 L 40 60.706 L 29.282 80 L 29.647 57.932 L 10.718 69.282 L 22.067999999999998 50.352999999999994 L 0 50.718 L 19.294 40 L 0 29.282 L 22.068 29.647 L 10.718000000000002 10.718 L 29.647 22.067999999999998 L 29.282 0 L 40 19.294 z" stroke-linecap="round" />
</g>
<g transform="matrix(0.0700331514 -0.1374477986 0.1374477986 0.0700331514 447.1469429219 93.8843017885)" id="BX3xV4Qb4IXcYvkhHJc_e"  >
<path style="stroke: none; stroke-width: 1; stroke-dasharray: none; stroke-linecap: butt; stroke-dashoffset: 0; stroke-linejoin: miter; stroke-miterlimit: 4; fill: rgb(18,125,255); fill-rule: nonzero; opacity: 1;" vector-effect="non-scaling-stroke"  transform=" translate(-40, -40)" d="M 40 19.294 L 50.718 0 L 50.353 22.068 L 69.282 10.718000000000002 L 57.931999999999995 29.647 L 80 29.282 L 60.706 40 L 80 50.718 L 57.932 50.353 L 69.282 69.282 L 50.352999999999994 57.931999999999995 L 50.718 80 L 40 60.706 L 29.282 80 L 29.647 57.932 L 10.718 69.282 L 22.067999999999998 50.352999999999994 L 0 50.718 L 19.294 40 L 0 29.282 L 22.068 29.647 L 10.718000000000002 10.718 L 29.647 22.067999999999998 L 29.282 0 L 40 19.294 z" stroke-linecap="round" />
</g>
<g transform="matrix(0.1542612707 0 0 0.1542612707 301.74392263 38.0941818724)" id="HqfPxlLY_xolybbjuHSrK"  >
<path style="stroke: none; stroke-width: 1; stroke-dasharray: none; stroke-linecap: butt; stroke-dashoffset: 0; stroke-linejoin: miter; stroke-miterlimit: 4; fill: rgb(18,125,255); fill-rule: nonzero; opacity: 1;" vector-effect="non-scaling-stroke"  transform=" translate(-40, -40)" d="M 40 19.294 L 50.718 0 L 50.353 22.068 L 69.282 10.718000000000002 L 57.931999999999995 29.647 L 80 29.282 L 60.706 40 L 80 50.718 L 57.932 50.353 L 69.282 69.282 L 50.352999999999994 57.931999999999995 L 50.718 80 L 40 60.706 L 29.282 80 L 29.647 57.932 L 10.718 69.282 L 22.067999999999998 50.352999999999994 L 0 50.718 L 19.294 40 L 0 29.282 L 22.068 29.647 L 10.718000000000002 10.718 L 29.647 22.067999999999998 L 29.282 0 L 40 19.294 z" stroke-linecap="round" />
</g>
<g transform="matrix(0.1542612707 0 0 0.1542612707 311.74392263 48.0941818724)" id="umQExVfEuteQmyIt2PgRA"  >
<path style="stroke: none; stroke-width: 1; stroke-dasharray: none; stroke-linecap: butt; stroke-dashoffset: 0; stroke-linejoin: miter; stroke-miterlimit: 4; fill: rgb(18,125,255); fill-rule: nonzero; opacity: 1;" vector-effect="non-scaling-stroke"  transform=" translate(-40, -40)" d="M 40 19.294 L 50.718 0 L 50.353 22.068 L 69.282 10.718000000000002 L 57.931999999999995 29.647 L 80 29.282 L 60.706 40 L 80 50.718 L 57.932 50.353 L 69.282 69.282 L 50.352999999999994 57.931999999999995 L 50.718 80 L 40 60.706 L 29.282 80 L 29.647 57.932 L 10.718 69.282 L 22.067999999999998 50.352999999999994 L 0 50.718 L 19.294 40 L 0 29.282 L 22.068 29.647 L 10.718000000000002 10.718 L 29.647 22.067999999999998 L 29.282 0 L 40 19.294 z" stroke-linecap="round" />
</g>
<g transform="matrix(0.1542612707 0 0 0.1542612707 154.714962712 382.0651143199)" id="0fI_VWvevpK2ubpht-zgt"  >
<path style="stroke: none; stroke-width: 1; stroke-dasharray: none; stroke-linecap: butt; stroke-dashoffset: 0; stroke-linejoin: miter; stroke-miterlimit: 4; fill: rgb(18,125,255); fill-rule: nonzero; opacity: 1;" vector-effect="non-scaling-stroke"  transform=" translate(-40, -40)" d="M 40 19.294 L 50.718 0 L 50.353 22.068 L 69.282 10.718000000000002 L 57.931999999999995 29.647 L 80 29.282 L 60.706 40 L 80 50.718 L 57.932 50.353 L 69.282 69.282 L 50.352999999999994 57.931999999999995 L 50.718 80 L 40 60.706 L 29.282 80 L 29.647 57.932 L 10.718 69.282 L 22.067999999999998 50.352999999999994 L 0 50.718 L 19.294 40 L 0 29.282 L 22.068 29.647 L 10.718000000000002 10.718 L 29.647 22.067999999999998 L 29.282 0 L 40 19.294 z" stroke-linecap="round" />
</g>
<g transform="matrix(0.1542612707 0 0 0.1542612707 14.8920163639 486.1073280752)" id="NoyJA-HOc3xPBAumdidxw"  >
<path style="stroke: none; stroke-width: 1; stroke-dasharray: none; stroke-linecap: butt; stroke-dashoffset: 0; stroke-linejoin: miter; stroke-miterlimit: 4; fill: rgb(18,125,255); fill-rule: nonzero; opacity: 1;" vector-effect="non-scaling-stroke"  transform=" translate(-40, -40)" d="M 40 19.294 L 50.718 0 L 50.353 22.068 L 69.282 10.718000000000002 L 57.931999999999995 29.647 L 80 29.282 L 60.706 40 L 80 50.718 L 57.932 50.353 L 69.282 69.282 L 50.352999999999994 57.931999999999995 L 50.718 80 L 40 60.706 L 29.282 80 L 29.647 57.932 L 10.718 69.282 L 22.067999999999998 50.352999999999994 L 0 50.718 L 19.294 40 L 0 29.282 L 22.068 29.647 L 10.718000000000002 10.718 L 29.647 22.067999999999998 L 29.282 0 L 40 19.294 z" stroke-linecap="round" />
</g>
<g transform="matrix(0.1542612707 0 0 0.1542612707 173.1908378632 483.5800553677)" id="hsDWVZm7YI4OE3n0wQx2V"  >
<path style="stroke: none; stroke-width: 1; stroke-dasharray: none; stroke-linecap: butt; stroke-dashoffset: 0; stroke-linejoin: miter; stroke-miterlimit: 4; fill: rgb(18,125,255); fill-rule: nonzero; opacity: 1;" vector-effect="non-scaling-stroke"  transform=" translate(-40, -40)" d="M 40 19.294 L 50.718 0 L 50.353 22.068 L 69.282 10.718000000000002 L 57.931999999999995 29.647 L 80 29.282 L 60.706 40 L 80 50.718 L 57.932 50.353 L 69.282 69.282 L 50.352999999999994 57.931999999999995 L 50.718 80 L 40 60.706 L 29.282 80 L 29.647 57.932 L 10.718 69.282 L 22.067999999999998 50.352999999999994 L 0 50.718 L 19.294 40 L 0 29.282 L 22.068 29.647 L 10.718000000000002 10.718 L 29.647 22.067999999999998 L 29.282 0 L 40 19.294 z" stroke-linecap="round" />
</g>
<g transform="matrix(0.1542612707 0 0 0.1542612707 68.2294426702 429.7532802164)" id="0loFt9euLRBmjcWdo7R0y"  >
<path style="stroke: none; stroke-width: 1; stroke-dasharray: none; stroke-linecap: butt; stroke-dashoffset: 0; stroke-linejoin: miter; stroke-miterlimit: 4; fill: rgb(18,125,255); fill-rule: nonzero; opacity: 1;" vector-effect="non-scaling-stroke"  transform=" translate(-40, -40)" d="M 40 19.294 L 50.718 0 L 50.353 22.068 L 69.282 10.718000000000002 L 57.931999999999995 29.647 L 80 29.282 L 60.706 40 L 80 50.718 L 57.932 50.353 L 69.282 69.282 L 50.352999999999994 57.931999999999995 L 50.718 80 L 40 60.706 L 29.282 80 L 29.647 57.932 L 10.718 69.282 L 22.067999999999998 50.352999999999994 L 0 50.718 L 19.294 40 L 0 29.282 L 22.068 29.647 L 10.718000000000002 10.718 L 29.647 22.067999999999998 L 29.282 0 L 40 19.294 z" stroke-linecap="round" />
</g>
<g transform="matrix(0.1542612707 0 0 0.1542612707 421.7401384687 364.5189208058)" id="GHWg_7zDO_CqVC98rwWo3"  >
<path style="stroke: none; stroke-width: 1; stroke-dasharray: none; stroke-linecap: butt; stroke-dashoffset: 0; stroke-linejoin: miter; stroke-miterlimit: 4; fill: rgb(18,125,255); fill-rule: nonzero; opacity: 1;" vector-effect="non-scaling-stroke"  transform=" translate(-40, -40)" d="M 40 19.294 L 50.718 0 L 50.353 22.068 L 69.282 10.718000000000002 L 57.931999999999995 29.647 L 80 29.282 L 60.706 40 L 80 50.718 L 57.932 50.353 L 69.282 69.282 L 50.352999999999994 57.931999999999995 L 50.718 80 L 40 60.706 L 29.282 80 L 29.647 57.932 L 10.718 69.282 L 22.067999999999998 50.352999999999994 L 0 50.718 L 19.294 40 L 0 29.282 L 22.068 29.647 L 10.718000000000002 10.718 L 29.647 22.067999999999998 L 29.282 0 L 40 19.294 z" stroke-linecap="round" />
</g>
<g transform="matrix(0.1542612707 0 0 0.1542612707 267.1183315599 382.2966985836)" id="fG9Pe0nPex4QowLEBuSgz"  >
<path style="stroke: none; stroke-width: 1; stroke-dasharray: none; stroke-linecap: butt; stroke-dashoffset: 0; stroke-linejoin: miter; stroke-miterlimit: 4; fill: rgb(18,125,255); fill-rule: nonzero; opacity: 1;" vector-effect="non-scaling-stroke"  transform=" translate(-40, -40)" d="M 40 19.294 L 50.718 0 L 50.353 22.068 L 69.282 10.718000000000002 L 57.931999999999995 29.647 L 80 29.282 L 60.706 40 L 80 50.718 L 57.932 50.353 L 69.282 69.282 L 50.352999999999994 57.931999999999995 L 50.718 80 L 40 60.706 L 29.282 80 L 29.647 57.932 L 10.718 69.282 L 22.067999999999998 50.352999999999994 L 0 50.718 L 19.294 40 L 0 29.282 L 22.068 29.647 L 10.718000000000002 10.718 L 29.647 22.067999999999998 L 29.282 0 L 40 19.294 z" stroke-linecap="round" />
</g>
<g transform="matrix(0.1542612707 0 0 0.1542612707 305.9102804843 433.411593856)" id="48jkO9lmTW-TyX8ZjlSrh"  >
<path style="stroke: none; stroke-width: 1; stroke-dasharray: none; stroke-linecap: butt; stroke-dashoffset: 0; stroke-linejoin: miter; stroke-miterlimit: 4; fill: rgb(18,125,255); fill-rule: nonzero; opacity: 1;" vector-effect="non-scaling-stroke"  transform=" translate(-40, -40)" d="M 40 19.294 L 50.718 0 L 50.353 22.068 L 69.282 10.718000000000002 L 57.931999999999995 29.647 L 80 29.282 L 60.706 40 L 80 50.718 L 57.932 50.353 L 69.282 69.282 L 50.352999999999994 57.931999999999995 L 50.718 80 L 40 60.706 L 29.282 80 L 29.647 57.932 L 10.718 69.282 L 22.067999999999998 50.352999999999994 L 0 50.718 L 19.294 40 L 0 29.282 L 22.068 29.647 L 10.718000000000002 10.718 L 29.647 22.067999999999998 L 29.282 0 L 40 19.294 z" stroke-linecap="round" />
</g>
<g transform="matrix(0.1542612707 0 0 0.1542612707 411.0072204488 426.741143028)" id="vDJN5dTZLaNkb_xtYErUf"  >
<path style="stroke: none; stroke-width: 1; stroke-dasharray: none; stroke-linecap: butt; stroke-dashoffset: 0; stroke-linejoin: miter; stroke-miterlimit: 4; fill: rgb(18,125,255); fill-rule: nonzero; opacity: 1;" vector-effect="non-scaling-stroke"  transform=" translate(-40, -40)" d="M 40 19.294 L 50.718 0 L 50.353 22.068 L 69.282 10.718000000000002 L 57.931999999999995 29.647 L 80 29.282 L 60.706 40 L 80 50.718 L 57.932 50.353 L 69.282 69.282 L 50.352999999999994 57.931999999999995 L 50.718 80 L 40 60.706 L 29.282 80 L 29.647 57.932 L 10.718 69.282 L 22.067999999999998 50.352999999999994 L 0 50.718 L 19.294 40 L 0 29.282 L 22.068 29.647 L 10.718000000000002 10.718 L 29.647 22.067999999999998 L 29.282 0 L 40 19.294 z" stroke-linecap="round" />
</g>
<g transform="matrix(0.1542612707 0 0 0.1542612707 259.1745438018 177.3004827449)" id="_XsofNpuq1XsJgcbJioYs"  >
<path style="stroke: none; stroke-width: 1; stroke-dasharray: none; stroke-linecap: butt; stroke-dashoffset: 0; stroke-linejoin: miter; stroke-miterlimit: 4; fill: rgb(18,125,255); fill-rule: nonzero; opacity: 1;" vector-effect="non-scaling-stroke"  transform=" translate(-40, -40)" d="M 40 19.294 L 50.718 0 L 50.353 22.068 L 69.282 10.718000000000002 L 57.931999999999995 29.647 L 80 29.282 L 60.706 40 L 80 50.718 L 57.932 50.353 L 69.282 69.282 L 50.352999999999994 57.931999999999995 L 50.718 80 L 40 60.706 L 29.282 80 L 29.647 57.932 L 10.718 69.282 L 22.067999999999998 50.352999999999994 L 0 50.718 L 19.294 40 L 0 29.282 L 22.068 29.647 L 10.718000000000002 10.718 L 29.647 22.067999999999998 L 29.282 0 L 40 19.294 z" stroke-linecap="round" />
</g>
<g transform="matrix(0.1542612707 0 0 0.1542612707 238.5803834384 123.0989750481)" id="eXrWkCBpfKl-OBkm6hd-l"  >
<path style="stroke: none; stroke-width: 1; stroke-dasharray: none; stroke-linecap: butt; stroke-dashoffset: 0; stroke-linejoin: miter; stroke-miterlimit: 4; fill: rgb(18,125,255); fill-rule: nonzero; opacity: 1;" vector-effect="non-scaling-stroke"  transform=" translate(-40, -40)" d="M 40 19.294 L 50.718 0 L 50.353 22.068 L 69.282 10.718000000000002 L 57.931999999999995 29.647 L 80 29.282 L 60.706 40 L 80 50.718 L 57.932 50.353 L 69.282 69.282 L 50.352999999999994 57.931999999999995 L 50.718 80 L 40 60.706 L 29.282 80 L 29.647 57.932 L 10.718 69.282 L 22.067999999999998 50.352999999999994 L 0 50.718 L 19.294 40 L 0 29.282 L 22.068 29.647 L 10.718000000000002 10.718 L 29.647 22.067999999999998 L 29.282 0 L 40 19.294 z" stroke-linecap="round" />
</g>
<g transform="matrix(0.1542612707 0 0 0.1542612707 251.9212850944 74.2015088222)" id="4RviaEJzf1--Vvhjs2VrS"  >
<path style="stroke: none; stroke-width: 1; stroke-dasharray: none; stroke-linecap: butt; stroke-dashoffset: 0; stroke-linejoin: miter; stroke-miterlimit: 4; fill: rgb(18,125,255); fill-rule: nonzero; opacity: 1;" vector-effect="non-scaling-stroke"  transform=" translate(-40, -40)" d="M 40 19.294 L 50.718 0 L 50.353 22.068 L 69.282 10.718000000000002 L 57.931999999999995 29.647 L 80 29.282 L 60.706 40 L 80 50.718 L 57.932 50.353 L 69.282 69.282 L 50.352999999999994 57.931999999999995 L 50.718 80 L 40 60.706 L 29.282 80 L 29.647 57.932 L 10.718 69.282 L 22.067999999999998 50.352999999999994 L 0 50.718 L 19.294 40 L 0 29.282 L 22.068 29.647 L 10.718000000000002 10.718 L 29.647 22.067999999999998 L 29.282 0 L 40 19.294 z" stroke-linecap="round" />
</g>
<g transform="matrix(0.1542612707 0 0 0.1542612707 231.9099326104 216.4161615964)" id="ttgWQWKqIDFsaGmSqoe7E"  >
<path style="stroke: none; stroke-width: 1; stroke-dasharray: none; stroke-linecap: butt; stroke-dashoffset: 0; stroke-linejoin: miter; stroke-miterlimit: 4; fill: rgb(18,125,255); fill-rule: nonzero; opacity: 1;" vector-effect="non-scaling-stroke"  transform=" translate(-40, -40)" d="M 40 19.294 L 50.718 0 L 50.353 22.068 L 69.282 10.718000000000002 L 57.931999999999995 29.647 L 80 29.282 L 60.706 40 L 80 50.718 L 57.932 50.353 L 69.282 69.282 L 50.352999999999994 57.931999999999995 L 50.718 80 L 40 60.706 L 29.282 80 L 29.647 57.932 L 10.718 69.282 L 22.067999999999998 50.352999999999994 L 0 50.718 L 19.294 40 L 0 29.282 L 22.068 29.647 L 10.718000000000002 10.718 L 29.647 22.067999999999998 L 29.282 0 L 40 19.294 z" stroke-linecap="round" />
</g>
<g transform="matrix(0.1542612707 0 0 0.1542612707 462.7891302618 17.8512451248)" id="mih8xQkDaLlV_9sfIVN_D"  >
<path style="stroke: none; stroke-width: 1; stroke-dasharray: none; stroke-linecap: butt; stroke-dashoffset: 0; stroke-linejoin: miter; stroke-miterlimit: 4; fill: rgb(18,125,255); fill-rule: nonzero; opacity: 1;" vector-effect="non-scaling-stroke"  transform=" translate(-40, -40)" d="M 40 19.294 L 50.718 0 L 50.353 22.068 L 69.282 10.718000000000002 L 57.931999999999995 29.647 L 80 29.282 L 60.706 40 L 80 50.718 L 57.932 50.353 L 69.282 69.282 L 50.352999999999994 57.931999999999995 L 50.718 80 L 40 60.706 L 29.282 80 L 29.647 57.932 L 10.718 69.282 L 22.067999999999998 50.352999999999994 L 0 50.718 L 19.294 40 L 0 29.282 L 22.068 29.647 L 10.718000000000002 10.718 L 29.647 22.067999999999998 L 29.282 0 L 40 19.294 z" stroke-linecap="round" />
</g>
<g transform="matrix(0.1542612707 0 0 0.1542612707 449.4482286058 53.9585720746)" id="Rs72kIBqKd8wVueyh1m2b"  >
<path style="stroke: none; stroke-width: 1; stroke-dasharray: none; stroke-linecap: butt; stroke-dashoffset: 0; stroke-linejoin: miter; stroke-miterlimit: 4; fill: rgb(18,125,255); fill-rule: nonzero; opacity: 1;" vector-effect="non-scaling-stroke"  transform=" translate(-40, -40)" d="M 40 19.294 L 50.718 0 L 50.353 22.068 L 69.282 10.718000000000002 L 57.931999999999995 29.647 L 80 29.282 L 60.706 40 L 80 50.718 L 57.932 50.353 L 69.282 69.282 L 50.352999999999994 57.931999999999995 L 50.718 80 L 40 60.706 L 29.282 80 L 29.647 57.932 L 10.718 69.282 L 22.067999999999998 50.352999999999994 L 0 50.718 L 19.294 40 L 0 29.282 L 22.068 29.647 L 10.718000000000002 10.718 L 29.647 22.067999999999998 L 29.282 0 L 40 19.294 z" stroke-linecap="round" />
</g>
<g transform="matrix(0.1542612707 0 0 0.1542612707 453.3371174947 134.4999999991)" id="E_xIkYUQxWObeYjxJWppa"  >
<path style="stroke: none; stroke-width: 1; stroke-dasharray: none; stroke-linecap: butt; stroke-dashoffset: 0; stroke-linejoin: miter; stroke-miterlimit: 4; fill: rgb(18,125,255); fill-rule: nonzero; opacity: 1;" vector-effect="non-scaling-stroke"  transform=" translate(-40, -40)" d="M 40 19.294 L 50.718 0 L 50.353 22.068 L 69.282 10.718000000000002 L 57.931999999999995 29.647 L 80 29.282 L 60.706 40 L 80 50.718 L 57.932 50.353 L 69.282 69.282 L 50.352999999999994 57.931999999999995 L 50.718 80 L 40 60.706 L 29.282 80 L 29.647 57.932 L 10.718 69.282 L 22.067999999999998 50.352999999999994 L 0 50.718 L 19.294 40 L 0 29.282 L 22.068 29.647 L 10.718000000000002 10.718 L 29.647 22.067999999999998 L 29.282 0 L 40 19.294 z" stroke-linecap="round" />
</g>
</svg>